<mxfile host="app.diagrams.net" modified="2023-12-06T00:56:10.002Z" agent="Mozilla/5.0 (Windows NT 10.0; Win64; x64) AppleWebKit/537.36 (KHTML, like Gecko) Chrome/119.0.0.0 Safari/537.36" etag="KFv7jxCYnLRbmEyXKKze" version="22.1.5" type="device">
  <diagram id="C5RBs43oDa-KdzZeNtuy" name="Page-1">
    <mxGraphModel dx="794" dy="480" grid="1" gridSize="10" guides="1" tooltips="1" connect="1" arrows="1" fold="1" page="1" pageScale="1" pageWidth="827" pageHeight="1169" math="0" shadow="0">
      <root>
        <mxCell id="WIyWlLk6GJQsqaUBKTNV-0" />
        <mxCell id="WIyWlLk6GJQsqaUBKTNV-1" parent="WIyWlLk6GJQsqaUBKTNV-0" />
        <mxCell id="kJ4noEFg6IsrvhcMcCjG-3" style="edgeStyle=orthogonalEdgeStyle;rounded=0;orthogonalLoop=1;jettySize=auto;html=1;exitX=0.5;exitY=1;exitDx=0;exitDy=0;entryX=0.5;entryY=0;entryDx=0;entryDy=0;" parent="WIyWlLk6GJQsqaUBKTNV-1" source="kJ4noEFg6IsrvhcMcCjG-1" target="kJ4noEFg6IsrvhcMcCjG-2" edge="1">
          <mxGeometry relative="1" as="geometry" />
        </mxCell>
        <mxCell id="kJ4noEFg6IsrvhcMcCjG-1" value="start" style="ellipse;whiteSpace=wrap;html=1;" parent="WIyWlLk6GJQsqaUBKTNV-1" vertex="1">
          <mxGeometry x="354" y="30" width="120" height="80" as="geometry" />
        </mxCell>
        <mxCell id="kJ4noEFg6IsrvhcMcCjG-5" style="edgeStyle=orthogonalEdgeStyle;rounded=0;orthogonalLoop=1;jettySize=auto;html=1;exitX=0.5;exitY=1;exitDx=0;exitDy=0;entryX=0.5;entryY=0;entryDx=0;entryDy=0;" parent="WIyWlLk6GJQsqaUBKTNV-1" source="kJ4noEFg6IsrvhcMcCjG-2" target="kJ4noEFg6IsrvhcMcCjG-4" edge="1">
          <mxGeometry relative="1" as="geometry" />
        </mxCell>
        <mxCell id="kJ4noEFg6IsrvhcMcCjG-2" value="&lt;div&gt;FILE *filePointer;&lt;/div&gt;&lt;div&gt;int line;&lt;span style=&quot;&quot;&gt;&lt;/span&gt;&lt;/div&gt;&lt;div&gt;&lt;span style=&quot;&quot;&gt;&lt;span style=&quot;&quot;&gt;&lt;span style=&quot;white-space: pre;&quot;&gt;&amp;nbsp;&amp;nbsp;&amp;nbsp;&amp;nbsp;&lt;/span&gt;&lt;/span&gt;char content[50];&lt;/span&gt;&lt;/div&gt;" style="rounded=0;whiteSpace=wrap;html=1;" parent="WIyWlLk6GJQsqaUBKTNV-1" vertex="1">
          <mxGeometry x="354" y="160" width="120" height="60" as="geometry" />
        </mxCell>
        <mxCell id="kJ4noEFg6IsrvhcMcCjG-7" style="edgeStyle=orthogonalEdgeStyle;rounded=0;orthogonalLoop=1;jettySize=auto;html=1;exitX=0.5;exitY=1;exitDx=0;exitDy=0;entryX=0.5;entryY=0;entryDx=0;entryDy=0;" parent="WIyWlLk6GJQsqaUBKTNV-1" source="kJ4noEFg6IsrvhcMcCjG-4" target="kJ4noEFg6IsrvhcMcCjG-6" edge="1">
          <mxGeometry relative="1" as="geometry" />
        </mxCell>
        <mxCell id="kJ4noEFg6IsrvhcMcCjG-4" value="mo tep tin bang file" style="rounded=0;whiteSpace=wrap;html=1;" parent="WIyWlLk6GJQsqaUBKTNV-1" vertex="1">
          <mxGeometry x="354" y="260" width="120" height="60" as="geometry" />
        </mxCell>
        <mxCell id="kJ4noEFg6IsrvhcMcCjG-9" style="edgeStyle=orthogonalEdgeStyle;rounded=0;orthogonalLoop=1;jettySize=auto;html=1;exitX=0.5;exitY=1;exitDx=0;exitDy=0;entryX=0.5;entryY=0;entryDx=0;entryDy=0;" parent="WIyWlLk6GJQsqaUBKTNV-1" source="kJ4noEFg6IsrvhcMcCjG-6" target="kJ4noEFg6IsrvhcMcCjG-8" edge="1">
          <mxGeometry relative="1" as="geometry" />
        </mxCell>
        <mxCell id="kJ4noEFg6IsrvhcMcCjG-6" value="kiem tra tep tin co mo khong" style="rounded=0;whiteSpace=wrap;html=1;" parent="WIyWlLk6GJQsqaUBKTNV-1" vertex="1">
          <mxGeometry x="354" y="360" width="120" height="60" as="geometry" />
        </mxCell>
        <mxCell id="kJ4noEFg6IsrvhcMcCjG-11" value="" style="edgeStyle=orthogonalEdgeStyle;rounded=0;orthogonalLoop=1;jettySize=auto;html=1;" parent="WIyWlLk6GJQsqaUBKTNV-1" source="kJ4noEFg6IsrvhcMcCjG-8" target="kJ4noEFg6IsrvhcMcCjG-10" edge="1">
          <mxGeometry relative="1" as="geometry" />
        </mxCell>
        <mxCell id="kJ4noEFg6IsrvhcMcCjG-8" value="current" style="shape=parallelogram;perimeter=parallelogramPerimeter;whiteSpace=wrap;html=1;fixedSize=1;" parent="WIyWlLk6GJQsqaUBKTNV-1" vertex="1">
          <mxGeometry x="354" y="470" width="120" height="60" as="geometry" />
        </mxCell>
        <mxCell id="kJ4noEFg6IsrvhcMcCjG-13" style="edgeStyle=orthogonalEdgeStyle;rounded=0;orthogonalLoop=1;jettySize=auto;html=1;exitX=0.5;exitY=1;exitDx=0;exitDy=0;entryX=0.5;entryY=0;entryDx=0;entryDy=0;" parent="WIyWlLk6GJQsqaUBKTNV-1" source="kJ4noEFg6IsrvhcMcCjG-10" target="kJ4noEFg6IsrvhcMcCjG-12" edge="1">
          <mxGeometry relative="1" as="geometry" />
        </mxCell>
        <mxCell id="kJ4noEFg6IsrvhcMcCjG-17" style="edgeStyle=orthogonalEdgeStyle;rounded=0;orthogonalLoop=1;jettySize=auto;html=1;exitX=1;exitY=0.5;exitDx=0;exitDy=0;" parent="WIyWlLk6GJQsqaUBKTNV-1" source="kJ4noEFg6IsrvhcMcCjG-10" target="kJ4noEFg6IsrvhcMcCjG-14" edge="1">
          <mxGeometry relative="1" as="geometry" />
        </mxCell>
        <mxCell id="kJ4noEFg6IsrvhcMcCjG-10" value="i&amp;lt;current?" style="rhombus;whiteSpace=wrap;html=1;" parent="WIyWlLk6GJQsqaUBKTNV-1" vertex="1">
          <mxGeometry x="374" y="585" width="80" height="80" as="geometry" />
        </mxCell>
        <mxCell id="kJ4noEFg6IsrvhcMcCjG-18" style="edgeStyle=orthogonalEdgeStyle;rounded=0;orthogonalLoop=1;jettySize=auto;html=1;exitX=0.5;exitY=1;exitDx=0;exitDy=0;entryX=0.5;entryY=0;entryDx=0;entryDy=0;" parent="WIyWlLk6GJQsqaUBKTNV-1" source="kJ4noEFg6IsrvhcMcCjG-12" edge="1" target="kJ4noEFg6IsrvhcMcCjG-19">
          <mxGeometry relative="1" as="geometry">
            <mxPoint x="414" y="790" as="targetPoint" />
          </mxGeometry>
        </mxCell>
        <mxCell id="kJ4noEFg6IsrvhcMcCjG-12" value="nhap noi dung tung dong" style="shape=parallelogram;perimeter=parallelogramPerimeter;whiteSpace=wrap;html=1;fixedSize=1;" parent="WIyWlLk6GJQsqaUBKTNV-1" vertex="1">
          <mxGeometry x="354" y="700" width="120" height="60" as="geometry" />
        </mxCell>
        <mxCell id="kJ4noEFg6IsrvhcMcCjG-21" style="edgeStyle=orthogonalEdgeStyle;rounded=0;orthogonalLoop=1;jettySize=auto;html=1;exitX=0.5;exitY=1;exitDx=0;exitDy=0;" parent="WIyWlLk6GJQsqaUBKTNV-1" source="kJ4noEFg6IsrvhcMcCjG-14" edge="1">
          <mxGeometry relative="1" as="geometry">
            <mxPoint x="650" y="690" as="targetPoint" />
          </mxGeometry>
        </mxCell>
        <mxCell id="kJ4noEFg6IsrvhcMcCjG-14" value="mo file de doc&lt;br&gt;kiem tra file mo duoc khong" style="rounded=0;whiteSpace=wrap;html=1;" parent="WIyWlLk6GJQsqaUBKTNV-1" vertex="1">
          <mxGeometry x="590" y="595" width="120" height="60" as="geometry" />
        </mxCell>
        <mxCell id="kJ4noEFg6IsrvhcMcCjG-20" style="edgeStyle=orthogonalEdgeStyle;rounded=0;orthogonalLoop=1;jettySize=auto;html=1;exitX=0;exitY=0.5;exitDx=0;exitDy=0;entryX=0;entryY=0.5;entryDx=0;entryDy=0;" parent="WIyWlLk6GJQsqaUBKTNV-1" source="kJ4noEFg6IsrvhcMcCjG-19" target="kJ4noEFg6IsrvhcMcCjG-10" edge="1">
          <mxGeometry relative="1" as="geometry" />
        </mxCell>
        <mxCell id="kJ4noEFg6IsrvhcMcCjG-19" value="i++" style="rounded=0;whiteSpace=wrap;html=1;" parent="WIyWlLk6GJQsqaUBKTNV-1" vertex="1">
          <mxGeometry x="354" y="830" width="120" height="60" as="geometry" />
        </mxCell>
        <mxCell id="kJ4noEFg6IsrvhcMcCjG-23" style="edgeStyle=orthogonalEdgeStyle;rounded=0;orthogonalLoop=1;jettySize=auto;html=1;exitX=0.5;exitY=1;exitDx=0;exitDy=0;" parent="WIyWlLk6GJQsqaUBKTNV-1" source="kJ4noEFg6IsrvhcMcCjG-22" edge="1">
          <mxGeometry relative="1" as="geometry">
            <mxPoint x="650" y="810" as="targetPoint" />
          </mxGeometry>
        </mxCell>
        <mxCell id="kJ4noEFg6IsrvhcMcCjG-26" style="edgeStyle=orthogonalEdgeStyle;rounded=0;orthogonalLoop=1;jettySize=auto;html=1;exitX=1;exitY=0.5;exitDx=0;exitDy=0;" parent="WIyWlLk6GJQsqaUBKTNV-1" source="kJ4noEFg6IsrvhcMcCjG-22" edge="1">
          <mxGeometry relative="1" as="geometry">
            <mxPoint x="780" y="730" as="targetPoint" />
          </mxGeometry>
        </mxCell>
        <mxCell id="kJ4noEFg6IsrvhcMcCjG-22" value="i&amp;lt;current?" style="rhombus;whiteSpace=wrap;html=1;" parent="WIyWlLk6GJQsqaUBKTNV-1" vertex="1">
          <mxGeometry x="610" y="690" width="80" height="80" as="geometry" />
        </mxCell>
        <mxCell id="kJ4noEFg6IsrvhcMcCjG-28" style="edgeStyle=orthogonalEdgeStyle;rounded=0;orthogonalLoop=1;jettySize=auto;html=1;exitX=0.5;exitY=1;exitDx=0;exitDy=0;entryX=0.5;entryY=0;entryDx=0;entryDy=0;" parent="WIyWlLk6GJQsqaUBKTNV-1" source="kJ4noEFg6IsrvhcMcCjG-24" target="kJ4noEFg6IsrvhcMcCjG-27" edge="1">
          <mxGeometry relative="1" as="geometry" />
        </mxCell>
        <mxCell id="kJ4noEFg6IsrvhcMcCjG-24" value="noi dung file" style="shape=parallelogram;perimeter=parallelogramPerimeter;whiteSpace=wrap;html=1;fixedSize=1;" parent="WIyWlLk6GJQsqaUBKTNV-1" vertex="1">
          <mxGeometry x="590" y="810" width="120" height="60" as="geometry" />
        </mxCell>
        <mxCell id="kJ4noEFg6IsrvhcMcCjG-29" style="edgeStyle=orthogonalEdgeStyle;rounded=0;orthogonalLoop=1;jettySize=auto;html=1;exitX=0;exitY=0.5;exitDx=0;exitDy=0;entryX=0;entryY=0.5;entryDx=0;entryDy=0;" parent="WIyWlLk6GJQsqaUBKTNV-1" source="kJ4noEFg6IsrvhcMcCjG-27" target="kJ4noEFg6IsrvhcMcCjG-22" edge="1">
          <mxGeometry relative="1" as="geometry" />
        </mxCell>
        <mxCell id="kJ4noEFg6IsrvhcMcCjG-27" value="i++" style="rounded=0;whiteSpace=wrap;html=1;" parent="WIyWlLk6GJQsqaUBKTNV-1" vertex="1">
          <mxGeometry x="590" y="910" width="120" height="60" as="geometry" />
        </mxCell>
        <mxCell id="kJ4noEFg6IsrvhcMcCjG-33" style="edgeStyle=orthogonalEdgeStyle;rounded=0;orthogonalLoop=1;jettySize=auto;html=1;exitX=0.5;exitY=1;exitDx=0;exitDy=0;entryX=0.5;entryY=0;entryDx=0;entryDy=0;" parent="WIyWlLk6GJQsqaUBKTNV-1" source="kJ4noEFg6IsrvhcMcCjG-31" target="kJ4noEFg6IsrvhcMcCjG-32" edge="1">
          <mxGeometry relative="1" as="geometry" />
        </mxCell>
        <mxCell id="kJ4noEFg6IsrvhcMcCjG-31" value="fclose(filePointer)" style="rounded=0;whiteSpace=wrap;html=1;" parent="WIyWlLk6GJQsqaUBKTNV-1" vertex="1">
          <mxGeometry x="780" y="700" width="120" height="60" as="geometry" />
        </mxCell>
        <mxCell id="kJ4noEFg6IsrvhcMcCjG-32" value="end" style="ellipse;whiteSpace=wrap;html=1;" parent="WIyWlLk6GJQsqaUBKTNV-1" vertex="1">
          <mxGeometry x="780" y="810" width="120" height="80" as="geometry" />
        </mxCell>
      </root>
    </mxGraphModel>
  </diagram>
</mxfile>
